<svg width="75" height="73" viewBox="0 0 75 73" fill="none" xmlns="http://www.w3.org/2000/svg">
<g clip-path="url(#clip0_153_97)">
<path fill-rule="evenodd" clip-rule="evenodd" d="M17.5701 42.0808V49.3886H15.926V44.2524L13.7271 47.927L11.5174 44.2524V49.3886H9.88379V42.0808H12.0003L13.7271 45.0555L15.4119 42.0808H17.5701Z" fill="black"/>
<path fill-rule="evenodd" clip-rule="evenodd" d="M18.958 49.3887H20.592V42.0809H18.958V49.3887Z" fill="black"/>
<path fill-rule="evenodd" clip-rule="evenodd" d="M23.2739 43.604H21.3013V42.0808H26.8911V43.604H24.9184V49.3886H23.2739V43.604Z" fill="black"/>
<path fill-rule="evenodd" clip-rule="evenodd" d="M27.4978 49.2959V47.7725C27.8369 47.8347 28.6594 47.9784 29.6662 47.9784C30.5089 47.9784 30.9301 47.8652 30.9301 47.4019C30.9301 46.8667 30.5704 46.7946 29.3888 46.2493C28.2377 45.7244 27.3848 45.2611 27.3848 44.0258C27.3848 42.5029 28.3099 41.9778 30.1386 41.9778C31.074 41.9778 31.7523 42.0603 32.1733 42.1116V43.6346C31.7626 43.5938 31.0124 43.491 30.1799 43.491C29.1935 43.491 28.998 43.5938 28.998 43.9953C28.998 44.4068 29.5325 44.6129 30.3341 44.973C31.5366 45.5185 32.5228 45.9713 32.5228 47.3609C32.5228 48.8122 31.6186 49.4913 29.6662 49.4913C28.8958 49.4913 28.1761 49.4089 27.4978 49.2959Z" fill="black"/>
<path fill-rule="evenodd" clip-rule="evenodd" d="M33.5 46.9186V42.0808H35.134V46.8565C35.134 47.69 35.6274 47.9785 36.4081 47.9785C37.1893 47.9785 37.6926 47.69 37.6926 46.8565V42.0808H39.3266V46.9186C39.3266 48.6885 38.1656 49.4914 36.4081 49.4914C34.6507 49.4914 33.5 48.6885 33.5 46.9186Z" fill="black"/>
<path fill-rule="evenodd" clip-rule="evenodd" d="M43.7866 48.0093C44.4442 48.0093 44.7111 47.7725 44.7111 47.1346C44.7111 46.5683 44.4644 46.3317 43.8579 46.3317H42.3581V48.0093H43.7866ZM43.6735 45.0346C44.3308 45.0346 44.5678 44.685 44.5678 44.2011C44.5678 43.6142 44.2796 43.4602 43.6735 43.4602H42.3581V45.0346H43.6735ZM40.7241 42.0807H43.9095C45.3998 42.0807 46.2222 42.6262 46.2222 43.9641C46.2222 45.0245 45.6157 45.3534 45.0606 45.5702C45.7183 45.7654 46.407 46.126 46.407 47.3508C46.407 48.6267 45.6362 49.3885 44.023 49.3885H40.7241V42.0807Z" fill="black"/>
<path fill-rule="evenodd" clip-rule="evenodd" d="M47.3945 49.3887H49.0285V42.0809H47.3945V49.3887Z" fill="black"/>
<path fill-rule="evenodd" clip-rule="evenodd" d="M50.2204 49.2959V47.7725C50.5594 47.8347 51.3819 47.9784 52.3887 47.9784C53.231 47.9784 53.6523 47.8652 53.6523 47.4019C53.6523 46.8667 53.2929 46.7946 52.1114 46.2493C50.9603 45.7244 50.1069 45.2611 50.1069 44.0258C50.1069 42.5029 51.0324 41.9778 52.8612 41.9778C53.7966 41.9778 54.4748 42.0603 54.8959 42.1116V43.6346C54.4847 43.5938 53.7349 43.491 52.9025 43.491C51.9157 43.491 51.7202 43.5938 51.7202 43.9953C51.7202 44.4068 52.2551 44.6129 53.0567 44.973C54.2592 45.5185 55.2454 45.9713 55.2454 47.3609C55.2454 48.8122 54.3408 49.4913 52.3887 49.4913C51.618 49.4913 50.8982 49.4089 50.2204 49.2959Z" fill="black"/>
<path fill-rule="evenodd" clip-rule="evenodd" d="M61.9766 42.0808V49.3886H60.3429V46.4858H57.7528V49.3886H56.1191V42.0808H57.7528V44.9626H60.3429V42.0808H61.9766Z" fill="black"/>
<path fill-rule="evenodd" clip-rule="evenodd" d="M63.313 49.3887H64.947V42.0809H63.313V49.3887Z" fill="black"/>
<path fill-rule="evenodd" clip-rule="evenodd" d="M25.2317 51.9158V59.2236H23.5872V54.0876L21.3882 57.762L19.1786 54.0876V59.2236H17.5449V51.9158H19.6615L21.3882 54.8901L23.0734 51.9158H25.2317Z" fill="black"/>
<path fill-rule="evenodd" clip-rule="evenodd" d="M30.9454 55.5696C30.9454 54.0769 30.6884 53.3259 29.4966 53.3259C28.3042 53.3259 28.0476 54.0769 28.0476 55.5696C28.0476 57.0724 28.3042 57.8337 29.4966 57.8337C30.6884 57.8337 30.9454 57.0724 30.9454 55.5696ZM26.3516 55.5696C26.3516 52.9551 27.3486 51.8128 29.4966 51.8128C31.6444 51.8128 32.6411 52.9551 32.6411 55.5696C32.6411 58.1839 31.6444 59.3264 29.4966 59.3264C27.3486 59.3264 26.3516 58.1839 26.3516 55.5696Z" fill="black"/>
<path fill-rule="evenodd" clip-rule="evenodd" d="M34.8821 53.439H32.9087V51.9158H38.4992V53.439H36.5262V59.2236H34.8821V53.439Z" fill="black"/>
<path fill-rule="evenodd" clip-rule="evenodd" d="M43.3601 55.5696C43.3601 54.0769 43.1031 53.3259 41.9109 53.3259C40.7185 53.3259 40.4619 54.0769 40.4619 55.5696C40.4619 57.0724 40.7185 57.8337 41.9109 57.8337C43.1031 57.8337 43.3601 57.0724 43.3601 55.5696ZM38.7666 55.5696C38.7666 52.9551 39.7631 51.8128 41.9109 51.8128C44.0587 51.8128 45.0554 52.9551 45.0554 55.5696C45.0554 58.1839 44.0587 59.3264 41.9109 59.3264C39.7631 59.3264 38.7666 58.1839 38.7666 55.5696Z" fill="black"/>
<path fill-rule="evenodd" clip-rule="evenodd" d="M49.0434 55.1887C49.7829 55.1887 50.0092 54.8184 50.0092 54.2624C50.0092 53.6962 49.7829 53.3259 49.0434 53.3259H47.8205V55.1887H49.0434ZM46.1865 51.9158H49.146C50.7082 51.9158 51.7049 52.5023 51.7049 54.2624C51.7049 55.3944 51.14 56.1258 50.2049 56.3519L52.0028 59.2236H50.0915L48.55 56.6089H47.8205V59.2236H46.1865V51.9158Z" fill="black"/>
<path fill-rule="evenodd" clip-rule="evenodd" d="M52.6818 59.1309V57.6075C53.0208 57.6693 53.843 57.8134 54.8502 57.8134C55.6925 57.8134 56.1137 57.7 56.1137 57.2369C56.1137 56.7017 55.7543 56.6298 54.5728 56.0843C53.4217 55.5592 52.5684 55.0959 52.5684 53.8608C52.5684 52.3377 53.4935 51.8128 55.3226 51.8128C56.258 51.8128 56.9363 51.8951 57.3573 51.9462V53.4698C56.9462 53.4286 56.1963 53.326 55.3639 53.326C54.3771 53.326 54.182 53.4286 54.182 53.83C54.182 54.2416 54.7163 54.4479 55.5177 54.8082C56.7202 55.3533 57.7064 55.8063 57.7064 57.1961C57.7064 58.6468 56.8022 59.3261 54.8502 59.3261C54.0794 59.3261 53.36 59.2439 52.6818 59.1309Z" fill="black"/>
<path fill-rule="evenodd" clip-rule="evenodd" d="M30.3477 12.3152L37.3369 24.4398L44.3258 12.3152L37.3369 0.190552L30.3477 12.3152Z" fill="#ED0000"/>
<path fill-rule="evenodd" clip-rule="evenodd" d="M51.3146 24.4398L37.3364 24.4401L44.3257 36.5648H58.3039L51.3146 24.4398Z" fill="#ED0000"/>
<path fill-rule="evenodd" clip-rule="evenodd" d="M23.3585 24.4398L37.3367 24.4401L30.3478 36.5648H16.3696L23.3585 24.4398Z" fill="#ED0000"/>
<path fill-rule="evenodd" clip-rule="evenodd" d="M0 70.377H2.26009C3.81148 70.377 4.7823 69.4839 4.7823 67.5476C4.7823 65.547 3.81929 64.7184 2.29169 64.7184H0V70.377ZM1.00279 69.4363V65.6584H2.30768C3.2625 65.6584 3.73972 66.2248 3.73972 67.5238C3.73972 68.8307 3.24651 69.4363 2.27608 69.4363H1.00279ZM5.65755 70.377H6.65197V67.4519C6.98623 67.3562 7.39226 67.2605 8.17195 67.2605V66.3922C7.38407 66.3922 6.92265 66.5995 6.5802 66.7426V66.4717H5.65755V70.377ZM9.41326 65.9058L10.1134 65.1962L9.41326 64.4789L8.72075 65.1962L9.41326 65.9058ZM8.91986 70.377H9.91447V66.4717H8.91986V70.377ZM12.2218 70.377H13.177C13.6302 69.6754 14.6012 68.6876 14.6726 66.4717H13.678C13.5986 68.0895 13.0416 68.9663 12.6992 69.4601C12.3571 68.9663 11.8001 68.0895 11.7206 66.4717H10.7261C10.7975 68.6876 11.7685 69.6754 12.2218 70.377ZM17.3859 70.4563C18.134 70.4563 18.5475 70.3844 18.7864 70.3211V69.5C18.5237 69.564 18.0626 69.6513 17.4495 69.6513C16.7334 69.6513 16.2642 69.4363 16.224 68.7432H19.0091C19.0169 68.6473 19.0169 68.4719 19.0169 68.3366C19.0169 67.0854 18.6112 66.3922 17.2112 66.3922C15.8583 66.3922 15.2296 67.069 15.2296 68.4084C15.2296 69.7789 16.0015 70.4563 17.3859 70.4563ZM16.224 68.0973C16.2642 67.4919 16.4869 67.1571 17.1788 67.1571C17.9909 67.1571 18.0463 67.5398 18.0544 68.0973H16.224ZM22.5021 72.3694L24.1572 70.074C24.348 69.8109 25.4623 68.4164 25.4623 66.4717H24.4673C24.4673 68.01 23.7036 69.1417 23.4651 69.4839C23.1866 69.0857 22.4069 67.9859 22.4069 66.4717H21.4119C21.4755 68.5278 22.4069 69.5556 22.8839 70.2573L21.786 71.8113L22.5021 72.3694ZM28.0481 70.4563C29.3928 70.4563 30.1089 69.7471 30.1089 68.4245C30.1089 67.0773 29.3928 66.3922 28.0481 66.3922C26.711 66.3922 25.9869 67.0773 25.9869 68.4245C25.9869 69.7471 26.711 70.4563 28.0481 70.4563ZM28.0481 69.5879C27.2762 69.5879 27.0137 69.1812 27.0137 68.4164C27.0137 67.6269 27.2762 67.2445 28.0481 67.2445C28.8198 67.2445 29.0905 67.6269 29.0905 68.4164C29.0905 69.1812 28.8198 69.5879 28.0481 69.5879ZM34.7001 66.4717H33.7055V69.3964C33.3716 69.4921 32.9657 69.5879 32.5675 69.5879C32.2332 69.5879 31.9072 69.4443 31.9072 68.9423V66.4717H30.9128V68.9901C30.9128 70.0262 31.5171 70.4563 32.1857 70.4563C32.9732 70.4563 33.435 70.2494 33.7772 70.1057V70.377H34.7001V66.4717ZM35.7824 70.377H36.7768V67.4519C37.1111 67.3562 37.5171 67.2605 38.2968 67.2605V66.3922C37.5089 66.3922 37.0475 66.5995 36.7055 66.7426V66.4717H35.7824V70.377ZM43.6115 64.8536L43.5324 64.7184H42.0761L42.0126 64.8456C41.4318 66.0172 40.4452 67.3962 40.4452 69.6994V70.369H41.4638V69.8027C41.4638 69.4839 41.4794 69.1974 41.5114 68.9261H44.1771C44.2087 69.1974 44.2247 69.4921 44.2247 69.8109V70.377H45.2427V69.7549C45.2427 67.4519 44.2567 65.9693 43.6115 64.8536ZM41.6545 68.0498C41.9248 66.9259 42.4268 66.2248 42.8164 65.4197C43.2143 66.2404 43.7309 66.9497 44.0176 68.0498H41.6545ZM46.2059 70.377H47.2005V67.4599C47.4314 67.3482 47.972 67.2683 48.2985 67.2683C48.6649 67.2683 48.9188 67.4439 48.9188 67.9381V70.377H49.9138V67.7945C49.9138 67.6748 49.9056 67.5636 49.8819 67.4599C50.0968 67.3402 50.6541 67.2605 50.9878 67.2683C51.3463 67.2769 51.6166 67.4439 51.6166 67.9381V70.377H52.6037V67.8025C52.6037 66.7905 52.0144 66.3922 51.2745 66.3922C50.7415 66.3922 49.9614 66.5514 49.5878 66.7981C49.365 66.5194 48.9828 66.3922 48.5853 66.3922C48.0286 66.3922 47.3358 66.6153 47.1295 66.7426V66.4717H46.2059V70.377ZM56.0084 66.3922C55.4041 66.3922 54.9586 66.5752 54.6957 66.671V64.5586H53.7011V66.6788L53.7089 70.377H54.6957V70.1137C54.9426 70.2254 55.3003 70.4563 56.0084 70.4563C57.0916 70.4563 57.7359 69.6357 57.7359 68.4245C57.7359 67.2126 57.0916 66.3922 56.0084 66.3922ZM55.7861 69.5797C55.3003 69.5797 54.9746 69.4683 54.7039 69.4044V67.4279C54.9828 67.3562 55.3003 67.2528 55.7861 67.2528C56.478 67.2528 56.7409 67.7068 56.7409 68.4245C56.7409 69.1417 56.4621 69.5797 55.7861 69.5797ZM59.1278 65.9058L59.8283 65.1962L59.1278 64.4789L58.4359 65.1962L59.1278 65.9058ZM58.6348 70.377H59.6294V66.4717H58.6348V70.377ZM62.6138 70.4563C62.9235 70.4563 63.2579 70.4249 63.4409 70.393V69.4921C63.2817 69.5162 63.035 69.5318 62.8119 69.5318C62.3029 69.5318 62.0642 69.4523 62.0642 68.9739V67.2923H63.3215V66.4717H62.0642V65.3958H61.0774V66.4717H60.3615V67.2923H61.0774V69.2052C61.0774 70.1297 61.6102 70.4563 62.6138 70.4563ZM64.7537 65.9058L65.4535 65.1962L64.7537 64.4789L64.0614 65.1962L64.7537 65.9058ZM64.2603 70.377H65.2553V66.4717H64.2603V70.377ZM68.2066 70.4563C69.5516 70.4563 70.2678 69.7471 70.2678 68.4245C70.2678 67.0773 69.5516 66.3922 68.2066 66.3922C66.8703 66.3922 66.1456 67.0773 66.1456 68.4245C66.1456 69.7471 66.8703 70.4563 68.2066 70.4563ZM68.2066 69.5879C67.4351 69.5879 67.1726 69.1812 67.1726 68.4164C67.1726 67.6269 67.4351 67.2445 68.2066 67.2445C68.9787 67.2445 69.249 67.6269 69.249 68.4164C69.249 69.1812 68.9787 69.5879 68.2066 69.5879ZM71.1112 70.377H72.1058V67.4519C72.4401 67.3562 72.8457 67.2605 73.2438 67.2605C73.578 67.2605 73.9041 67.404 73.9041 67.9062V70.377H74.8987V67.8584C74.8987 66.8221 74.2942 66.3922 73.626 66.3922C72.8376 66.3922 72.3765 66.5995 72.0341 66.7426V66.4717H71.1112V70.377Z" fill="black"/>
</g>
<defs>
<clipPath id="clip0_153_97">
<rect width="75" height="73" fill="white"/>
</clipPath>
</defs>
</svg>
